<svg width="1457" height="270" viewBox="0 0 1457 270" fill="none" xmlns="http://www.w3.org/2000/svg">
<path d="M71.2928 268L0.0128174 79H24.4928L89.2928 254.32H78.1328L144.733 79H166.693L232.573 254.32H221.413L287.293 79H310.693L239.053 268H214.933L151.573 103.12H159.133L95.4128 268H71.2928ZM424.186 269.8C404.506 269.8 387.226 265.72 372.346 257.56C357.466 249.16 345.826 237.76 337.426 223.36C329.026 208.72 324.826 192.04 324.826 173.32C324.826 154.6 328.786 138.04 336.706 123.64C344.866 109.24 355.906 97.96 369.826 89.8C383.986 81.4 399.826 77.2 417.346 77.2C435.106 77.2 450.826 81.28 464.506 89.44C478.426 97.36 489.346 108.64 497.266 123.28C505.186 137.68 509.146 154.36 509.146 173.32C509.146 174.52 509.026 175.84 508.786 177.28C508.786 178.48 508.786 179.8 508.786 181.24H344.266V162.16H495.106L485.026 169.72C485.026 156.04 482.026 143.92 476.026 133.36C470.266 122.56 462.346 114.16 452.266 108.16C442.186 102.16 430.546 99.16 417.346 99.16C404.386 99.16 392.746 102.16 382.426 108.16C372.106 114.16 364.066 122.56 358.306 133.36C352.546 144.16 349.666 156.52 349.666 170.44V174.4C349.666 188.8 352.786 201.52 359.026 212.56C365.506 223.36 374.386 231.88 385.666 238.12C397.186 244.12 410.266 247.12 424.906 247.12C436.426 247.12 447.106 245.08 456.946 241C467.026 236.92 475.666 230.68 482.866 222.28L497.266 238.84C488.866 248.92 478.306 256.6 465.586 261.88C453.106 267.16 439.306 269.8 424.186 269.8ZM658.731 269.8C642.171 269.8 627.291 266.08 614.091 258.64C600.891 250.96 590.451 239.92 582.771 225.52C575.091 211.12 571.251 193.72 571.251 173.32C571.251 152.68 575.091 135.28 582.771 121.12C590.691 106.72 601.251 95.8 614.451 88.36C627.651 80.92 642.411 77.2 658.731 77.2C676.731 77.2 692.811 81.28 706.971 89.44C721.371 97.36 732.651 108.52 740.811 122.92C748.971 137.32 753.051 154.12 753.051 173.32C753.051 192.28 748.971 209.08 740.811 223.72C732.651 238.12 721.371 249.4 706.971 257.56C692.811 265.72 676.731 269.8 658.731 269.8ZM561.171 268V0.87999H586.731V134.8L583.131 172.96L585.651 211.12V268H561.171ZM656.931 247.12C670.371 247.12 682.371 244.12 692.931 238.12C703.491 231.88 711.891 223.24 718.131 212.2C724.371 200.92 727.491 187.96 727.491 173.32C727.491 158.44 724.371 145.48 718.131 134.44C711.891 123.4 703.491 114.88 692.931 108.88C682.371 102.64 670.371 99.52 656.931 99.52C643.491 99.52 631.371 102.64 620.571 108.88C610.011 114.88 601.611 123.4 595.371 134.44C589.371 145.48 586.371 158.44 586.371 173.32C586.371 187.96 589.371 200.92 595.371 212.2C601.611 223.24 610.011 231.88 620.571 238.12C631.371 244.12 643.491 247.12 656.931 247.12ZM805.156 268V79H830.716V268H805.156ZM818.116 37.24C812.836 37.24 808.396 35.44 804.796 31.84C801.196 28.24 799.396 23.92 799.396 18.88C799.396 13.84 801.196 9.63999 804.796 6.27999C808.396 2.67999 812.836 0.87999 818.116 0.87999C823.396 0.87999 827.836 2.55999 831.436 5.91999C835.036 9.27999 836.836 13.48 836.836 18.52C836.836 23.8 835.036 28.24 831.436 31.84C828.076 35.44 823.636 37.24 818.116 37.24ZM979.955 269.8C963.875 269.8 949.835 266.8 937.835 260.8C925.835 254.8 916.475 245.8 909.755 233.8C903.275 221.8 900.035 206.8 900.035 188.8V79H925.595V185.92C925.595 206.08 930.515 221.32 940.355 231.64C950.435 241.72 964.475 246.76 982.475 246.76C995.675 246.76 1007.08 244.12 1016.68 238.84C1026.52 233.32 1033.96 225.4 1039 215.08C1044.28 204.76 1046.92 192.4 1046.92 178V79H1072.48V268H1048V216.16L1051.96 225.52C1045.96 239.44 1036.6 250.36 1023.88 258.28C1011.4 265.96 996.755 269.8 979.955 269.8ZM1379.87 77.2C1395.23 77.2 1408.55 80.2 1419.83 86.2C1431.35 91.96 1440.23 100.84 1446.47 112.84C1452.95 124.84 1456.19 139.96 1456.19 158.2V268H1430.63V160.72C1430.63 140.8 1425.83 125.8 1416.23 115.72C1406.87 105.4 1393.55 100.24 1376.27 100.24C1363.31 100.24 1352.03 103 1342.43 108.52C1333.07 113.8 1325.75 121.6 1320.47 131.92C1315.43 142 1312.91 154.24 1312.91 168.64V268H1287.35V160.72C1287.35 140.8 1282.55 125.8 1272.95 115.72C1263.35 105.4 1249.91 100.24 1232.63 100.24C1219.91 100.24 1208.75 103 1199.15 108.52C1189.55 113.8 1182.11 121.6 1176.83 131.92C1171.79 142 1169.27 154.24 1169.27 168.64V268H1143.71V79H1168.19V130.12L1164.23 121.12C1169.99 107.44 1179.23 96.76 1191.95 89.08C1204.91 81.16 1220.15 77.2 1237.67 77.2C1256.15 77.2 1271.87 81.88 1284.83 91.24C1297.79 100.36 1306.19 114.16 1310.03 132.64L1299.95 128.68C1305.47 113.32 1315.19 100.96 1329.11 91.6C1343.27 82 1360.19 77.2 1379.87 77.2Z" fill="white"/>
</svg>
